<svg xmlns="http://www.w3.org/2000/svg" width="400" height="400" viewBox="0 0 400 400" version="1.1">
	<path d="M 0 163.059 L 0 326.118 1.250 325.411 L 2.500 324.705 5.753 322.299 L 9.005 319.894 11.923 318.877 L 14.841 317.860 14.326 312.680 L 13.811 307.500 15.883 302.719 L 17.955 297.938 21.002 294.147 L 24.050 290.355 25.064 281.427 L 26.079 272.500 25.023 255 L 23.967 237.500 25.368 229 L 26.770 220.500 28.783 217 L 30.797 213.500 32.390 207.876 L 33.982 202.253 38.109 198.126 L 42.235 194 43.011 194 L 43.786 194 44.369 192.481 L 44.952 190.962 45.480 170.231 L 46.007 149.500 46.613 123.883 L 47.218 98.265 47.930 97.114 L 48.641 95.962 52.571 97.352 L 56.500 98.741 64.188 102.443 L 71.875 106.145 72.998 107.498 L 74.121 108.851 73.592 119.675 L 73.062 130.500 72.423 159.750 L 71.783 189 75.792 189 L 79.801 189 81.029 194.250 L 82.257 199.500 83.176 201 L 84.095 202.500 83.519 198.500 L 82.943 194.500 82.326 188.500 L 81.709 182.500 81.724 179 L 81.739 175.500 83.301 161.765 L 84.864 148.030 85.357 147.232 L 85.850 146.434 89.022 132.467 L 92.194 118.500 93.795 115 L 95.396 111.500 96.021 111 L 96.646 110.500 97.308 108.708 L 97.969 106.916 100.735 105.696 L 103.500 104.476 103.805 102.988 L 104.110 101.500 105.393 100.500 L 106.676 99.500 106.277 98.318 L 105.878 97.135 107.939 96.033 L 110 94.930 110 93.484 L 110 92.038 112.526 91.404 L 115.053 90.770 116.093 88.826 L 117.134 86.881 120.693 88.981 L 124.252 91.081 124.674 90.660 L 125.095 90.238 123.548 88.690 L 122 87.143 122 86.683 L 122 86.222 123.250 86.269 L 124.500 86.315 126.813 86.158 L 129.126 86 128.909 84.250 L 128.693 82.500 129.453 80.750 L 130.214 79 131.407 79 L 132.600 79 133.821 77.779 L 135.042 76.558 136.771 76.450 L 138.500 76.342 141.250 76.171 L 144 76 144 74.500 L 144 73 152.750 72.956 L 161.500 72.913 165.657 72.108 L 169.814 71.303 172.907 72.603 L 176 73.903 176 73.426 L 176 72.949 178.750 74.350 L 181.500 75.752 191.217 77.392 L 200.935 79.032 206.477 82.073 L 212.019 85.115 212.626 83.532 L 213.234 81.949 214.367 82.846 L 215.500 83.743 217 83.422 L 218.500 83.100 220.629 82.465 L 222.757 81.830 225.913 84.915 L 229.069 88 230.284 88.118 L 231.500 88.237 232.250 88.118 L 233 88 233.101 90.250 L 233.203 92.500 233.013 95.886 L 232.823 99.273 234.162 100.121 L 235.500 100.969 233.750 100.985 L 232 101 232 99.083 L 232 97.167 230.750 96.662 L 229.500 96.158 230.809 96.079 L 232.118 96 231.500 95 L 230.882 94 229.441 94 L 228 94 228 96.941 L 228 99.882 229.016 100.510 L 230.033 101.138 229.457 102.069 L 228.882 103 226.441 103 L 224 103 224 101.607 L 224 100.214 222.500 99.638 L 221 99.063 221 99.597 L 221 100.131 222.035 102.066 L 223.070 104 226.285 104.022 L 229.500 104.044 232 106 L 234.500 107.956 236.250 107.978 L 238 108 238 110.107 L 238 112.214 239.427 111.666 L 240.854 111.119 242.040 112.548 L 243.227 113.978 244.200 113.376 L 245.174 112.775 249.009 116.887 L 252.844 121 253.922 121 L 255 121 255 122.469 L 255 123.937 256.399 123.400 L 257.798 122.864 258.458 123.932 L 259.118 125 260.494 125 L 261.870 125 264.685 126.159 L 267.500 127.318 262.500 128.220 L 257.500 129.122 256.266 129.228 L 255.032 129.333 255.961 130.453 L 256.890 131.573 254.296 131.788 L 251.702 132.002 250.395 133.087 L 249.088 134.172 248.149 133.592 L 247.210 133.011 246.636 134.506 L 246.063 136 244.031 136 L 242 136 242 136.889 L 242 137.777 238.750 138.393 L 235.500 139.008 232.500 141.577 L 229.500 144.145 232 143.627 L 234.500 143.109 231.500 145.543 L 228.500 147.977 228.167 146.989 L 227.833 146 226.917 146 L 226 146 225.968 147.250 L 225.937 148.500 223.516 151.250 L 221.096 154 219.489 154 L 217.882 154 218.417 154.866 L 218.953 155.733 217.183 157.334 L 215.413 158.936 215.187 162.293 L 214.961 165.649 214.014 168.952 L 213.066 172.255 214.056 174.105 L 215.046 175.954 216.799 176.892 L 218.552 177.830 220.026 177.050 L 221.500 176.270 224.223 175.623 L 226.947 174.975 226.405 176.386 L 225.864 177.798 227.167 178.603 L 228.471 179.409 231.986 179.160 L 235.500 178.911 238.250 177.834 L 241 176.757 241 175.879 L 241 175 239.875 175 L 238.750 175 239.339 172.053 L 239.929 169.106 241.687 167.053 L 243.444 165 244.122 165 L 244.800 165 244.800 168.383 L 244.800 171.765 246.482 174.332 L 248.164 176.899 251.657 178.052 L 255.150 179.205 259.325 178.577 L 263.500 177.950 265.745 174.670 L 267.990 171.391 268.213 168.695 L 268.436 166 269.218 166 L 270 166 270 167 L 270 168 271.250 168.008 L 272.500 168.016 273.734 170.674 L 274.969 173.333 273.734 174.823 L 272.500 176.314 276.384 175.586 L 280.268 174.859 279.611 176.571 L 278.954 178.283 280.472 177.023 L 281.989 175.764 283.997 176.289 L 286.005 176.814 286.842 175.317 L 287.680 173.821 288.340 173.910 L 289 174 289.975 174 L 290.950 174 290.342 170.750 L 289.734 167.500 285.579 163.500 L 281.424 159.500 280.218 156.716 L 279.012 153.931 281.256 153.097 L 283.500 152.263 284.673 152.709 L 285.847 153.155 286.923 151.143 L 288 149.131 288 148.503 L 288 147.874 286.250 148.096 L 284.500 148.318 281.851 147.576 L 279.203 146.834 278.775 143.917 L 278.346 141 279.020 141 L 279.694 141 282.007 143.006 L 284.321 145.013 284.821 144.512 L 285.321 144.012 283.791 142.256 L 282.261 140.500 281.754 137.673 L 281.248 134.845 283.563 135.426 L 285.877 136.007 286.525 134.960 L 287.172 133.912 286.069 132.583 L 284.965 131.253 285.590 129.627 L 286.214 128 284.857 127.930 L 283.500 127.859 285.500 127.066 L 287.500 126.273 288.166 127.309 L 288.831 128.345 295.188 125.084 L 301.545 121.824 303.636 118.635 L 305.726 115.446 308.863 115.207 L 312 114.968 312 115.953 L 312 116.937 313.253 116.457 L 314.505 115.976 315.753 119.972 L 317 123.969 317 125.984 L 317 128 317.782 128 L 318.563 128 319.737 132.250 L 320.910 136.500 322.048 142.357 L 323.186 148.213 323.343 175.556 L 323.500 202.899 324.364 202.036 L 325.227 201.173 325.974 193.336 L 326.720 185.500 326.860 187.050 L 327 188.600 328.161 189.761 L 329.322 190.922 329.610 193.620 L 329.898 196.319 331.199 197.127 L 332.500 197.935 333.165 194.717 L 333.829 191.500 334.322 183.500 L 334.815 175.500 333.785 174.250 L 332.755 173 330.937 173 L 329.118 173 328.635 172.219 L 328.153 171.438 329.666 162.469 L 331.179 153.500 331.976 130 L 332.774 106.500 333.457 102.972 L 334.139 99.443 338.320 98.083 L 342.500 96.723 371.250 96.441 L 400 96.159 400 144.579 L 400 193 386.750 193.193 L 373.500 193.386 361.500 193.746 L 349.500 194.105 342.500 194 L 335.500 193.895 337.500 195.416 L 339.500 196.936 337.750 196.968 L 336 197 336 197.861 L 336 198.723 338.750 198.397 L 341.500 198.072 339.750 198.609 L 338 199.147 338 200.573 L 338 202 337.067 202 L 336.135 202 335.495 204.015 L 334.856 206.029 334.009 205.506 L 333.163 204.983 332.646 207.741 L 332.129 210.500 331.503 215.250 L 330.877 220 329.939 220 L 329 220 329 222.059 L 329 224.118 328.207 223.628 L 327.415 223.138 327.203 226.319 L 326.992 229.500 325.746 231.998 L 324.500 234.496 320.992 238.083 L 317.484 241.670 315.677 249.436 L 313.870 257.203 314.185 257.421 L 314.500 257.639 319.826 259.796 L 325.152 261.952 329.106 265.084 L 333.060 268.216 334.500 270.999 L 335.939 273.783 342.592 276.896 L 349.245 280.010 354.015 283.511 L 358.785 287.012 367.142 287.607 L 375.500 288.201 376.344 288.717 L 377.188 289.234 376.817 293.117 L 376.447 297 377.346 297 L 378.245 297 377.107 298.371 L 375.970 299.741 377.735 301.749 L 379.500 303.756 388 306.382 L 396.500 309.009 398.210 309.004 L 399.919 309 400.256 317.250 L 400.593 325.500 400.796 162.750 L 401 0 341.268 0 L 281.536 0 285.215 2.500 L 288.894 5 289.730 5 L 290.566 5 293.493 7.250 L 296.419 9.500 300.795 13.964 L 305.170 18.428 306.611 21.214 L 308.051 24 307.492 24 L 306.933 24 303.978 20.978 L 301.024 17.956 298.734 18.531 L 296.444 19.105 293.072 15.086 L 289.700 11.067 288.850 11.593 L 288 12.118 288 10.559 L 288 9 286.250 8.968 L 284.500 8.936 282.749 7.607 L 280.998 6.278 278.529 6.750 L 276.061 7.221 274.908 8.611 L 273.755 10 275.878 10 L 278 10 278 10.936 L 278 11.873 283.860 17.936 L 289.720 24 290.860 24 L 292 24 292 25.030 L 292 26.060 287.999 23.780 L 283.998 21.500 283.432 19.750 L 282.865 18 281.482 18 L 280.099 18 279.300 16.700 L 278.500 15.400 275.250 13.132 L 272 10.864 272 9.432 L 272 8 273.500 8 L 275 8 275 6.669 L 275 5.338 272.250 4.047 L 269.500 2.756 266.846 1.378 L 264.191 0 262.096 0 L 260 0 260 0.941 L 260 1.882 261 2.500 L 262 3.118 262 4.131 L 262 5.143 259.750 4.852 L 257.500 4.562 256.183 5.381 L 254.867 6.200 254.212 5.546 L 253.558 4.891 254.886 4.071 L 256.214 3.250 254.945 2.466 L 253.676 1.682 251.866 3.917 L 250.056 6.153 248.979 5.487 L 247.903 4.822 248.973 3.533 L 250.042 2.244 248.021 1.716 L 246 1.187 246 1.926 L 246 2.664 242.501 3.738 L 239.002 4.812 238.507 4.011 L 238.011 3.210 239.506 2.636 L 241 2.063 241 1.281 L 241 0.500 237.250 0.467 L 233.500 0.433 232.765 1.467 L 232.031 2.500 232.015 1.461 L 232 0.422 222.409 0.191 L 212.818 -0.039 214.429 1.572 L 216.040 3.183 217.770 3.515 L 219.500 3.847 220 3.939 L 220.500 4.031 221.912 4.925 L 223.324 5.818 221.838 7.305 L 220.351 8.792 219.181 6.919 L 218.011 5.045 215.285 6.082 L 212.559 7.118 211.530 5.715 L 210.500 4.313 205.500 3.539 L 200.500 2.764 196.506 2.797 L 192.513 2.830 191.906 1.849 L 191.300 0.867 180.650 0.559 L 170 0.250 170 1.125 L 170 2 168.441 2 L 166.882 2 167.597 0.842 L 168.313 -0.315 165.906 0.480 L 163.500 1.275 156.155 1.594 L 148.810 1.912 147.655 2.807 L 146.500 3.702 141.573 3.571 L 136.647 3.441 136.238 2.214 L 135.829 0.988 134.915 1.553 L 134 2.118 134 3.942 L 134 5.767 131.253 6.292 L 128.505 6.817 127.676 5.659 L 126.848 4.500 127.254 5.991 L 127.661 7.482 126.402 8.741 L 125.143 10 124.071 10 L 123 10 123 8.441 L 123 6.882 121.750 7.662 L 120.500 8.442 118.578 8.741 L 116.657 9.040 115.328 10.142 L 114 11.245 114 10.204 L 114 9.163 117.250 7.139 L 120.500 5.116 123.944 2.558 L 127.389 0 63.694 0 L 0 0 0 163.059 M 139.813 0.683 L 141.125 1.208 141.729 0.604 L 142.333 0 140.417 0.079 L 138.500 0.158 139.813 0.683 M 207.500 1 L 208.118 2 209.500 2 L 210.882 2 211.500 1 L 212.118 -0 209.500 -0 L 206.882 0 207.500 1 M 0.488 163.500 L 0.488 326.500 0.750 244.671 L 1.012 162.842 0.750 81.671 L 0.488 0.500 0.488 163.500 M 130 2 L 130 3.333 130.667 2.667 L 131.333 2 130.667 1.333 L 130 0.667 130 2 M 137 1.500 L 137 2 137.500 2 L 138 2 138 1.500 L 138 1 137.500 1 L 137 1 137 1.500 M 230 1.500 L 230 2 230.500 2 L 231 2 231 1.500 L 231 1 230.500 1 L 230 1 230 1.500 M 242 1.500 L 242 2 242.500 2 L 243 2 243 1.500 L 243 1 242.500 1 L 242 1 242 1.500 M 262.507 3.132 L 263.225 5.500 264.006 6.344 L 264.788 7.188 266.644 6.746 L 268.500 6.305 266.500 5.402 L 264.500 4.500 264.500 3.083 L 264.500 1.667 263.145 1.215 L 261.790 0.763 262.507 3.132 M 212.638 3.500 L 213.214 5 214.076 5 L 214.937 5 214.362 3.500 L 213.786 2 212.924 2 L 212.063 2 212.638 3.500 M 276 2.500 L 276 3 276.500 3 L 277 3 277 2.500 L 277 2 276.500 2 L 276 2 276 2.500 M 139 5.500 L 139 6 139.500 6 L 140 6 140 5.500 L 140 5 139.500 5 L 139 5 139 5.500 M 224 6.422 L 224 7.962 226.250 8.524 L 228.500 9.086 232.750 9.322 L 237 9.557 237 8.858 L 237 8.159 233.750 7.430 L 230.500 6.700 228.307 6.444 L 226.114 6.189 225.057 5.535 L 224 4.882 224 6.422 M 271 5.500 L 271 6 271.500 6 L 272 6 272 5.500 L 272 5 271.500 5 L 271 5 271 5.500 M 231 8.500 L 231 9 231.500 9 L 232 9 232 8.500 L 232 8 231.500 8 L 231 8 231 8.500 M 270 8.500 L 270 9 270.500 9 L 271 9 271 8.500 L 271 8 270.500 8 L 270 8 270 8.500 M 238.614 10.437 L 239.166 11.874 240.583 11.330 L 242 10.786 242 11.952 L 242 13.118 243.047 12.471 L 244.094 11.824 248.437 13.865 L 252.779 15.907 255.399 16.564 L 258.019 17.222 258.568 18.111 L 259.118 19 260.059 19 L 261 19 261 18.083 L 261 17.165 256.250 15.411 L 251.500 13.656 250.492 12.906 L 249.484 12.157 244.992 10.593 L 240.500 9.029 239.281 9.015 L 238.063 9 238.614 10.437 M 265.333 9.667 L 266 10.333 266.667 9.667 L 267.333 9 266 9 L 264.667 9 265.333 9.667 M 112 12.500 L 112 13 112.500 13 L 113 13 113 12.500 L 113 12 112.500 12 L 112 12 112 12.500 M 105.500 14 L 104.882 15 105.882 15 L 106.882 15 107.500 14 L 108.118 13 107.118 13 L 106.118 13 105.500 14 M 120 13.500 L 120 14 120.500 14 L 121 14 121 13.500 L 121 13 120.500 13 L 120 13 120 13.500 M 103 15.500 L 103 16 103.500 16 L 104 16 104 15.500 L 104 15 103.500 15 L 103 15 103 15.500 M 263 19.358 L 263 20.767 264.750 21.270 L 266.500 21.773 268.414 22.556 L 270.328 23.340 269.601 22.163 L 268.873 20.986 265.937 19.467 L 263 17.949 263 19.358 M 95 19.500 L 95 20 95.500 20 L 96 20 96 19.500 L 96 19 95.500 19 L 95 19 95 19.500 M 91 21 L 91 22 92.500 22 L 94 22 94 21 L 94 20 92.500 20 L 91 20 91 21 M 88 22.500 L 88 23 88.500 23 L 89 23 89 22.500 L 89 22 88.500 22 L 88 22 88 22.500 M 272.065 24.579 L 273.245 26 274.122 26 L 275 26 275 25.117 L 275 24.233 272.943 23.695 L 270.886 23.157 272.065 24.579 M 300 24.500 L 300 25 300.500 25 L 301 25 301 24.500 L 301 24 300.500 24 L 300 24 300 24.500 M 80 26 L 80 27 81.500 27 L 83 27 83 26 L 83 25 81.500 25 L 80 25 80 26 M 75.500 29 L 73.690 31 75.104 31 L 76.519 31 77.768 29 L 79.017 27 78.163 27 L 77.310 27 75.500 29 M 278 27.941 L 278 28.882 279 29.500 L 280 30.118 280 28.559 L 280 27 279 27 L 278 27 278 27.941 M 293.032 28.191 L 293 29.882 294.067 30.541 L 295.133 31.200 295.556 30.777 L 295.979 30.354 294.521 28.427 L 293.064 26.500 293.032 28.191 M 281.079 30.583 L 281.158 32.500 281.683 31.188 L 282.208 29.875 281.604 29.271 L 281 28.667 281.079 30.583 M 310 29.500 L 310 30 310.500 30 L 311 30 311 29.500 L 311 29 310.500 29 L 310 29 310 29.500 M 71 32.500 L 71 33 71.500 33 L 72 33 72 32.500 L 72 32 71.500 32 L 71 32 71 32.500 M 299 35 L 299 36 300 36 L 301 36 301 35 L 301 34 300 34 L 299 34 299 35 M 376.215 37.552 L 373.167 38.833 371.083 40.917 L 369 43 369 45.695 L 369 48.391 366.647 50.945 L 364.294 53.500 363.046 58.145 L 361.799 62.791 362.419 64.743 L 363.038 66.696 365.437 67.789 L 367.836 68.882 376.387 69.576 L 384.939 70.270 387.719 68.510 L 390.500 66.750 392.228 64.625 L 393.956 62.500 393.978 58.450 L 394 54.400 392.864 53.264 L 391.729 52.129 391.441 48.094 L 391.154 44.060 390.509 42.029 L 389.865 39.998 387.706 38.843 L 385.547 37.687 382.405 36.979 L 379.263 36.270 376.215 37.552 M 296 41 L 296 42 297.559 42 L 299.118 42 298.500 41 L 297.882 40 296.941 40 L 296 40 296 41 M 304 40.500 L 304 41 304.500 41 L 305 41 305 40.500 L 305 40 304.500 40 L 304 40 304 40.500 M 307 44 L 307 45 308 45 L 309 45 309 44 L 309 43 308 43 L 307 43 307 44 M 310.500 48 L 311.118 49 311.618 49 L 312.118 49 311.500 48 L 310.882 47 310.382 47 L 309.882 47 310.500 48 M 47 51.469 L 47 52.937 48.500 52.362 L 50 51.786 50 50.893 L 50 50 48.500 50 L 47 50 47 51.469 M 43.564 56.707 L 42.882 58.500 44.124 57.267 L 45.367 56.033 44.807 55.474 L 44.247 54.914 43.564 56.707 M 40 63 L 40 64.333 40.667 63.667 L 41.333 63 40.667 62.333 L 40 61.667 40 63 M 160 71.500 L 160 72 160.500 72 L 161 72 161 71.500 L 161 71 160.500 71 L 160 71 160 71.500 M 176 75.500 L 176 76 176.500 76 L 177 76 177 75.500 L 177 75 176.500 75 L 176 75 176 75.500 M 127 79.500 L 127 80 127.500 80 L 128 80 128 79.500 L 128 79 127.500 79 L 127 79 127 79.500 M 176 83.583 L 176 85.167 177.188 84.771 L 178.375 84.375 178.771 83.188 L 179.167 82 177.583 82 L 176 82 176 83.583 M 132.333 87.667 L 133 88.333 133.667 87.667 L 134.333 87 133 87 L 131.667 87 132.333 87.667 M 235 92.500 L 235 94 235.393 94 L 235.786 94 236.362 92.500 L 236.937 91 235.969 91 L 235 91 235 92.500 M 328 110 L 328 111 329.059 111 L 330.118 111 329.500 110 L 328.882 109 328.441 109 L 328 109 328 110 M 80.492 125.250 L 77.608 134.500 76.801 135.607 L 75.993 136.714 76.665 140.075 L 77.337 143.437 78.564 139.468 L 79.790 135.500 79.931 137 L 80.071 138.500 81.504 136 L 82.937 133.500 82.865 127.500 L 82.793 121.500 83.505 118.750 L 84.217 116 83.797 116 L 83.376 116 80.492 125.250 M 279 129 L 279 130.333 279.667 129.667 L 280.333 129 279.667 128.333 L 279 127.667 279 129 M 271 129.500 L 271 130 271.500 130 L 272 130 272 129.500 L 272 129 271.500 129 L 271 129 271 129.500 M 264 130.500 L 264 131 264.500 131 L 265 131 265 130.500 L 265 130 264.500 130 L 264 130 264 130.500 M 131 133.196 L 128.500 134.130 130.270 135.126 L 132.040 136.122 134.020 135.494 L 136 134.865 136 134.040 L 136 133.214 134.750 132.738 L 133.500 132.263 131 133.196 M 79.405 134.155 L 78.691 135.309 79.845 134.595 L 81 133.882 81 133.441 L 81 133 80.559 133 L 80.118 133 79.405 134.155 M 120 134 L 120 135.333 120.667 134.667 L 121.333 134 120.667 133.333 L 120 132.667 120 134 M 127 134.500 L 127 135 127.500 135 L 128 135 128 134.500 L 128 134 127.500 134 L 127 134 127 134.500 M 140.813 134.683 L 142.125 135.208 142.729 134.604 L 143.333 134 141.417 134.079 L 139.500 134.158 140.813 134.683 M 145.965 136.021 L 144.779 136.755 142.639 136.291 L 140.500 135.827 142 136.898 L 143.500 137.969 141.297 137.985 L 139.094 138 136.530 139.168 L 133.966 140.336 132.721 138.634 L 131.476 136.931 129.488 138.434 L 127.500 139.936 129.500 140.013 L 131.500 140.090 128.534 141.355 L 125.568 142.620 127.284 143.279 L 129 143.937 129 145.352 L 129 146.767 127 147.290 L 125 147.813 125 148.703 L 125 149.592 134.750 149.182 L 144.500 148.771 143.829 149.473 L 143.158 150.175 139.579 150.982 L 136 151.789 136 150.895 L 136 150 132.250 150.032 L 128.500 150.064 126.697 151.431 L 124.894 152.798 126.197 153.320 L 127.500 153.842 126.258 153.921 L 125.015 154 122.758 155.939 L 120.500 157.879 118.257 159.801 L 116.014 161.723 114.475 165.405 L 112.936 169.088 113.527 170.044 L 114.118 171 115.437 171 L 116.755 171 118.010 172.512 L 119.265 174.025 120.620 172.900 L 121.975 171.776 123.487 172.357 L 125 172.937 125 170.540 L 125 168.143 126.578 166.565 L 128.156 164.987 130.031 163.984 L 131.906 162.980 132.546 166.392 L 133.186 169.804 136.012 172.511 L 138.837 175.218 139.850 174.593 L 140.862 173.967 141.534 175.054 L 142.205 176.141 146.353 175.498 L 150.500 174.854 152.168 174.386 L 153.836 173.917 155.668 169.462 L 157.500 165.007 158.191 165.004 L 158.882 165 159.663 166.250 L 160.444 167.500 160.688 169 L 160.933 170.500 159.313 171.722 L 157.693 172.945 159.597 173.650 L 161.500 174.354 162 175.025 L 162.500 175.696 166.750 176.360 L 171 177.024 171 176.071 L 171 175.118 170.044 174.527 L 169.087 173.936 169.712 172.308 L 170.337 170.680 167.457 168.384 L 164.578 166.089 165.133 165.533 L 165.689 164.978 169.482 167.552 L 173.275 170.127 172.639 166.813 L 172.003 163.500 172.947 164.971 L 173.891 166.442 174.566 165.767 L 175.242 165.092 172.412 160.619 L 169.582 156.146 165.041 154.135 L 160.500 152.123 159 151.640 L 157.500 151.158 160.095 151.079 L 162.690 151 164.345 149.171 L 166 147.343 166 146.671 L 166 146 164.108 146 L 162.217 146 161.589 143.500 L 160.962 141 158.841 141 L 156.720 141 155.537 139.382 L 154.354 137.764 150.753 136.526 L 147.152 135.288 145.965 136.021 M 77 136.500 L 77 137 77.500 137 L 78 137 78 136.500 L 78 136 77.500 136 L 77 136 77 136.500 M 276 137.500 L 276 138 276.500 138 L 277 138 277 137.500 L 277 137 276.500 137 L 276 137 276 137.500 M 284 138.059 L 284 139.118 285 138.500 L 286 137.882 286 137.441 L 286 137 285 137 L 284 137 284 138.059 M 152 138.500 L 152 139 152.500 139 L 153 139 153 138.500 L 153 138 152.500 138 L 152 138 152 138.500 M 75.079 142.583 L 75.158 144.500 75.683 143.188 L 76.208 141.875 75.604 141.271 L 75 140.667 75.079 142.583 M 158.333 142.667 L 159 143.333 159.667 142.667 L 160.333 142 159 142 L 157.667 142 158.333 142.667 M 125 144.500 L 125 145 125.500 145 L 126 145 126 144.500 L 126 144 125.500 144 L 125 144 125 144.500 M 280 144.500 L 280 145 280.500 145 L 281 145 281 144.500 L 281 144 280.500 144 L 280 144 280 144.500 M 284.750 146.662 L 286 147.167 287.250 146.662 L 288.500 146.158 286 146.158 L 283.500 146.158 284.750 146.662 M 158.500 148 L 159.118 149 160.118 149 L 161.118 149 160.500 148 L 159.882 147 158.882 147 L 157.882 147 158.500 148 M 289.333 147.667 L 290 148.333 290.667 147.667 L 291.333 147 290 147 L 288.667 147 289.333 147.667 M 296 148.500 L 296 149 296.500 149 L 297 149 297 148.500 L 297 148 296.500 148 L 296 148 296 148.500 M 154 149.500 L 154 150 154.500 150 L 155 150 155 149.500 L 155 149 154.500 149 L 154 149 154 149.500 M 226.333 151.667 L 227 152.333 227.667 151.667 L 228.333 151 227 151 L 225.667 151 226.333 151.667 M 280 151.500 L 280 152 280.500 152 L 281 152 281 151.500 L 281 151 280.500 151 L 280 151 280 151.500 M 130 152.500 L 130 153 130.500 153 L 131 153 131 152.500 L 131 152 130.500 152 L 130 152 130 152.500 M 137 155 L 137 156 140.750 155.985 L 144.500 155.969 143 155 L 141.500 154.031 139.250 154.015 L 137 154 137 155 M 130.250 156.031 L 128 156.936 128 157.936 L 128 158.937 126.572 158.389 L 125.143 157.841 121.073 161.670 L 117.003 165.500 117.002 166.750 L 117 168 118 168 L 119 168 119 166.567 L 119 165.135 121.236 164.425 L 123.471 163.716 126.986 160.934 L 130.500 158.152 132.922 157.826 L 135.343 157.500 135.755 156.250 L 136.167 155 134.333 155.063 L 132.500 155.127 130.250 156.031 M 97 156.500 L 97 157 97.500 157 L 98 157 98 156.500 L 98 156 97.500 156 L 97 156 97 156.500 M 283 157.500 L 283 158 283.500 158 L 284 158 284 157.500 L 284 157 283.500 157 L 283 157 283 157.500 M 94.333 159.667 L 95 160.333 95.667 159.667 L 96.333 159 95 159 L 93.667 159 94.333 159.667 M 216.333 159.667 L 217 160.333 217.667 159.667 L 218.333 159 217 159 L 215.667 159 216.333 159.667 M 247 159.500 L 247 160 247.500 160 L 248 160 248 159.500 L 248 159 247.500 159 L 247 159 247 159.500 M 139 164.759 L 139 168.519 140.892 169.701 L 142.784 170.882 143.392 170.274 L 144 169.667 144 168.333 L 144 167 142.500 167 L 141 167 141 164.570 L 141 162.139 143.250 161.706 L 145.500 161.272 142.250 161.136 L 139 161 139 164.759 M 241 162.500 L 241 163 241.500 163 L 242 163 242 162.500 L 242 162 241.500 162 L 241 162 241 162.500 M 149.333 163.667 L 150 164.333 150.667 163.667 L 151.333 163 150 163 L 148.667 163 149.333 163.667 M 253 163.500 L 253 164 253.500 164 L 254 164 254 163.500 L 254 163 253.500 163 L 253 163 253 163.500 M 259.636 165.494 L 260.210 166.989 261.105 166.435 L 262 165.882 262 164.941 L 262 164 260.531 164 L 259.063 164 259.636 165.494 M 249.869 167.199 L 249.297 169.897 250.349 170.949 L 251.400 172 252.700 172 L 254 172 254 171.107 L 254 170.214 252.578 169.668 L 251.155 169.122 250.798 166.811 L 250.440 164.500 249.869 167.199 M 147.813 167.683 L 149.125 168.208 149.729 167.604 L 150.333 167 148.417 167.079 L 146.500 167.158 147.813 167.683 M 147.405 170.155 L 146.691 171.309 147.845 170.595 L 149 169.882 149 169.441 L 149 169 148.559 169 L 148.118 169 147.405 170.155 M 257.813 170.683 L 259.125 171.208 259.729 170.604 L 260.333 170 258.417 170.079 L 256.500 170.158 257.813 170.683 M 256.813 172.683 L 258.125 173.208 258.729 172.604 L 259.333 172 257.417 172.079 L 255.500 172.158 256.813 172.683 M 252.813 173.683 L 254.125 174.208 254.729 173.604 L 255.333 173 253.417 173.079 L 251.500 173.158 252.813 173.683 M 230 175.500 L 230 176 230.500 176 L 231 176 231 175.500 L 231 175 230.500 175 L 230 175 230 175.500 M 77 176.500 L 77 177 77.500 177 L 78 177 78 176.500 L 78 176 77.500 176 L 77 176 77 176.500 M 329.349 177.452 L 328.198 178.703 329.045 180.073 L 329.891 181.442 330.526 180.807 L 331.162 180.172 330.831 178.186 L 330.500 176.200 329.349 177.452 M 157.500 184.535 L 154.500 185.980 157 185.369 L 159.500 184.758 161 183.909 L 162.500 183.061 161.500 183.076 L 160.500 183.090 157.500 184.535 M 238 187 L 239.500 187.969 241 187.969 L 242.500 187.969 241 187 L 239.500 186.031 238 186.031 L 236.500 186.031 238 187 M 248 189.500 L 248 190 248.500 190 L 249 190 249 189.500 L 249 189 248.500 189 L 248 189 248 189.500 M 331.079 193.583 L 331.158 195.500 331.683 194.188 L 332.208 192.875 331.604 192.271 L 331 191.667 331.079 193.583 M 334.123 196.500 L 333.973 198.500 333.458 201 L 332.944 203.500 334.015 201.047 L 335.086 198.594 334.679 196.547 L 334.272 194.500 334.123 196.500 M 331 203 L 331 204.333 331.667 203.667 L 332.333 203 331.667 202.333 L 331 201.667 331 203 M 329.257 207.763 L 329.426 210 330.213 210 L 331 210 330.985 209.250 L 330.969 208.500 330.029 207.013 L 329.089 205.525 329.257 207.763 M 67.745 208.250 L 67.276 209.500 67.544 213.368 L 67.811 217.237 65.865 217.746 L 63.918 218.255 64.292 219.377 L 64.666 220.500 71.266 220.675 L 77.867 220.849 78.933 215.875 L 80 210.902 80 208.951 L 80 207 79.200 207 L 78.400 207 77.210 208.190 L 76.020 209.380 74.579 209.591 L 73.138 209.803 72.601 208.401 L 72.063 207 70.138 207 L 68.214 207 67.745 208.250 M 78 208.500 L 78 209 78.500 209 L 79 209 79 208.500 L 79 208 78.500 208 L 78 208 78 208.500 M 334 209 L 334 210.333 334.667 209.667 L 335.333 209 334.667 208.333 L 334 207.667 334 209 M 8.013 210.789 L 5.804 212.577 5.275 219.162 L 4.747 225.747 6.873 227.873 L 9 230 12.443 230 L 15.887 230 17.443 227.777 L 19 225.555 19 218.932 L 19 212.310 17.171 210.655 L 15.343 209 12.782 209 L 10.222 209 8.013 210.789 M 329 214 L 329 216 330 216 L 331 216 331 214 L 331 212 330 212 L 329 212 329 214 M 58.073 220.635 L 56 223.270 56 224.246 L 56 225.222 57.750 223.119 L 59.500 221.015 61.500 219.540 L 63.500 218.064 61.823 218.032 L 60.145 218 58.073 220.635 M 135.973 246.728 L 133.500 248.456 131.666 249.978 L 129.832 251.500 127.666 253.309 L 125.500 255.117 121.661 258.727 L 117.822 262.337 116.911 264.734 L 116 267.130 116.010 270.315 L 116.020 273.500 118.358 268.500 L 120.697 263.500 128.915 256.061 L 137.132 248.621 138.101 246.811 L 139.070 245 138.758 245 L 138.445 245 135.973 246.728 M 217.059 245.713 L 214.619 246.189 211.559 248.431 L 208.500 250.673 203.826 253.334 L 199.152 255.995 197.412 255.328 L 195.672 254.660 196.357 255.769 L 197.042 256.877 195.279 257.864 L 193.517 258.850 194.340 259.675 L 195.164 260.500 201.332 260.426 L 207.500 260.352 213.500 259.519 L 219.500 258.686 223.250 256.742 L 227 254.798 227 253.865 L 227 252.933 229.929 250.069 L 232.858 247.206 228.179 246.531 L 223.500 245.856 221.500 245.546 L 219.500 245.236 217.059 245.713 M 169.639 247.498 L 169.064 248.996 171.621 250.671 L 174.178 252.346 179.631 252.537 L 185.084 252.727 183.084 250.864 L 181.084 249 180.149 249 L 179.214 249 178.638 247.500 L 178.063 246 174.138 246 L 170.214 246 169.639 247.498 M 260 248.668 L 260 249.432 266.536 255.716 L 273.072 262 273.968 262 L 274.864 262 277.163 265.229 L 279.462 268.458 281.199 273.479 L 282.935 278.500 282.967 275.217 L 283 271.934 280.547 267.093 L 278.095 262.253 273.297 258.015 L 268.500 253.777 264.250 250.841 L 260 247.904 260 248.668 M 73.557 251.223 L 72 253.445 72 254.583 L 72 255.721 69.378 259.585 L 66.755 263.450 63.008 270.606 L 59.261 277.762 57.484 283.413 L 55.706 289.064 54.942 289.536 L 54.178 290.008 51.625 283.254 L 49.073 276.500 49.560 272 L 50.046 267.500 49.032 269.814 L 48.017 272.128 47.113 271.570 L 46.210 271.011 45.625 272.535 L 45.041 274.058 46.520 279.739 L 48 285.420 48 286.809 L 48 288.198 49.370 291.349 L 50.741 294.500 52.031 298.750 L 53.320 303 54.160 303 L 55 303 55 304.941 L 55 306.882 55.931 307.457 L 56.862 308.033 57.559 306.905 L 58.256 305.776 57.378 305.138 L 56.500 304.500 56.383 302.500 L 56.266 300.500 55.837 297.788 L 55.409 295.076 54.704 294.371 L 54 293.667 54 292.333 L 54 291 55.345 291 L 56.690 291 58.500 289 L 60.310 287 61.250 287 L 62.191 287 70.367 281.560 L 78.543 276.120 84.021 273.570 L 89.500 271.020 86.660 271.010 L 83.821 271 81.944 268.750 L 80.067 266.500 80.033 265.095 L 80 263.690 81.750 265.204 L 83.500 266.718 85.639 267.236 L 87.779 267.755 89.139 266.783 L 90.500 265.811 88.782 266.362 L 87.064 266.913 86.526 266.042 L 85.988 265.171 87.244 264.752 L 88.500 264.332 84.660 262.509 L 80.819 260.686 81.243 257.800 L 81.666 254.914 80.083 255.516 L 78.500 256.118 79.750 254.859 L 81 253.600 81 252.241 L 81 250.882 80 251.500 L 79 252.118 79 250.559 L 79 249 77.057 249 L 75.113 249 73.557 251.223 M 43.693 254.328 L 41.887 257.102 43.110 264.384 L 44.334 271.666 46.226 269.774 L 48.117 267.883 47.054 262.691 L 45.991 257.500 45.746 254.527 L 45.500 251.554 43.693 254.328 M 88 261.941 L 88 262.882 88.989 263.493 L 89.977 264.104 89.382 262.552 L 88.786 261 88.393 261 L 88 261 88 261.941 M 94 263.500 L 94 264 94.500 264 L 95 264 95 263.500 L 95 263 94.500 263 L 94 263 94 263.500 M 95 265.500 L 95 266 95.500 266 L 96 266 96 265.500 L 96 265 95.500 265 L 95 265 95 265.500 M 92.813 268.683 L 94.125 269.208 94.729 268.604 L 95.333 268 93.417 268.079 L 91.500 268.158 92.813 268.683 M 96 269.500 L 96 270 96.500 270 L 97 270 97 269.500 L 97 269 96.500 269 L 96 269 96 269.500 M 256.045 275.445 L 254.846 276.890 250.173 278.406 L 245.500 279.922 240 280.540 L 234.500 281.159 231 281.527 L 227.500 281.896 219.500 282.531 L 211.500 283.166 208.258 284 L 205.016 284.834 204.513 284.021 L 204.011 283.208 200.255 284.059 L 196.500 284.910 190.888 284.327 L 185.276 283.744 184.637 284.778 L 183.998 285.812 181.999 285.289 L 180 284.767 180 283.761 L 180 282.755 178.544 283.964 L 177.088 285.172 175.889 284.432 L 174.691 283.691 175.405 284.845 L 176.118 286 178.859 286 L 181.600 286 182.800 287.200 L 184 288.400 184 287.200 L 184 286 190.929 286 L 197.857 286 199.348 287.491 L 200.839 288.982 201.202 287.893 L 201.565 286.805 208.267 286.267 L 214.968 285.729 216.647 287.114 L 218.325 288.500 218.746 287.250 L 219.167 286 223.524 286 L 227.882 286 228.537 287.060 L 229.192 288.120 230.346 286.629 L 231.500 285.138 233 284.951 L 234.500 284.763 236.382 284.882 L 238.263 285 237.735 288.937 L 237.207 292.874 237.703 293.370 L 238.200 293.866 240.850 292.690 L 243.500 291.514 245.439 289.757 L 247.377 288 248.548 288 L 249.718 288 254.122 284.250 L 258.525 280.500 260.749 279.250 L 262.973 278 264.736 277.967 L 266.500 277.933 264.139 275.967 L 261.778 274 259.512 274 L 257.245 274 256.045 275.445 M 129 276.500 L 129 277 129.500 277 L 130 277 130 276.500 L 130 276 129.500 276 L 129 276 129 276.500 M 140 277.487 L 140 277.975 143.750 280.380 L 147.500 282.785 149.568 284.762 L 151.636 286.739 155.568 288.086 L 159.500 289.433 161.473 290.717 L 163.445 292 164.223 292 L 165 292 165 290.467 L 165 288.933 161.750 285.690 L 158.500 282.446 149.941 279.723 L 141.382 277 140.691 277 L 140 277 140 277.487 M 163.333 283.667 L 164 284.333 164.667 283.667 L 165.333 283 164 283 L 162.667 283 163.333 283.667 M 168.333 283.667 L 169 284.333 169.667 283.667 L 170.333 283 169 283 L 167.667 283 168.333 283.667 M 171.333 284.667 L 172 285.333 172.667 284.667 L 173.333 284 172 284 L 170.667 284 171.333 284.667 M 229 294.034 L 229 296.068 231.462 295.739 L 233.924 295.409 234.601 294.732 L 235.277 294.056 232.574 293.028 L 229.870 292 229.435 292 L 229 292 229 294.034 M 218.079 297.250 L 218 299 219.500 299 L 221 299 221 300 L 221 301 222.071 301 L 223.143 301 224.643 299.500 L 226.143 298 222.655 298 L 219.167 298 218.662 296.750 L 218.158 295.500 218.079 297.250 M 301 297.500 L 301 298 301.500 298 L 302 298 302 297.500 L 302 297 301.500 297 L 301 297 301 297.500 M 182.500 299 L 181.882 300 183.500 300 L 185.118 300 184.500 299 L 183.882 298 183.500 298 L 183.118 298 182.500 299 M 201 299.798 L 201 300.930 199.236 301.874 L 197.472 302.818 193.236 302.043 L 189 301.269 189 302.003 L 189 302.738 192.750 303.358 L 196.500 303.978 199.693 303.989 L 202.885 304 202.474 301.865 L 202.063 299.729 201.531 299.198 L 201 298.667 201 299.798 M 208.250 300.689 L 210 301.147 211.750 300.689 L 213.500 300.232 210 300.232 L 206.500 300.232 208.250 300.689 M 219 300.500 L 219 301 219.500 301 L 220 301 220 300.500 L 220 300 219.500 300 L 219 300 219 300.500 M 304 302.500 L 304 303 304.500 303 L 305 303 305 302.500 L 305 302 304.500 302 L 304 302 304 302.500 M 303 304.500 L 303 305 303.500 305 L 304 305 304 304.500 L 304 304 303.500 304 L 303 304 303 304.500 M 357.333 309.667 L 358 310.333 358.667 309.667 L 359.333 309 358 309 L 356.667 309 357.333 309.667 M 293.590 316.847 L 292.860 324.193 293.342 324.675 L 293.824 325.157 294.520 318.654 L 295.217 312.151 294.768 310.825 L 294.320 309.500 293.590 316.847 M 119.129 315.727 L 118.884 320.453 117.940 321.037 L 116.995 321.621 117.364 324.787 L 117.732 327.952 116.866 327.417 L 116 326.882 116 327.941 L 116 329 117.059 329 L 118.118 329 117.452 330.077 L 116.787 331.154 115.376 337.199 L 113.966 343.244 115.011 355.372 L 116.055 367.500 116.900 371.500 L 117.746 375.500 119.918 383.400 L 122.090 391.300 123.039 393.073 L 123.987 394.845 126.629 396.922 L 129.270 399 130.135 399 L 131 399 131 397.500 L 131 396 130 396 L 129 396 129.118 395.250 L 129.237 394.500 129.118 393.191 L 129 391.882 128.015 392.491 L 127.030 393.099 127.534 389.800 L 128.038 386.500 127.089 388.500 L 126.141 390.500 126.070 388.250 L 126 386 126.906 386 L 127.812 386 126.668 383.576 L 125.524 381.152 124.890 382.179 L 124.255 383.205 123.711 377.353 L 123.166 371.500 121.533 360.500 L 119.899 349.500 119.811 343 L 119.722 336.500 120.460 332.183 L 121.199 327.865 121.546 328.213 L 121.894 328.561 122.500 332 L 123.106 335.439 123.448 335.782 L 123.791 336.124 123.264 325.312 L 122.738 314.500 121.834 312.750 L 120.930 311 120.152 311 L 119.374 311 119.129 315.727 M 304.079 312.583 L 304.158 314.500 304.683 313.188 L 305.208 311.875 304.604 311.271 L 304 310.667 304.079 312.583 M 306 312.500 L 306 313 306.500 313 L 307 313 307 312.500 L 307 312 306.500 312 L 306 312 306 312.500 M 358.811 314.039 L 361 316.078 361 317.098 L 361 318.118 360 317.500 L 359 316.882 359 317.819 L 359 318.755 360.284 319.820 L 361.567 320.886 362.764 320.146 L 363.961 319.406 361.444 315.703 L 358.928 312 357.775 312 L 356.623 312 358.811 314.039 M 361 312.500 L 361 313 361.500 313 L 362 313 362 312.500 L 362 312 361.500 312 L 361 312 361 312.500 M 363 314 L 363 315.333 363.667 314.667 L 364.333 314 363.667 313.333 L 363 312.667 363 314 M 59.333 315.667 L 60 316.333 60.667 315.667 L 61.333 315 60 315 L 58.667 315 59.333 315.667 M 305.252 318.500 L 305.272 322.500 305.707 320.238 L 306.142 317.977 305.687 316.238 L 305.232 314.500 305.252 318.500 M 357 316.500 L 357 318 357.393 318 L 357.786 318 358.362 316.500 L 358.937 315 357.969 315 L 357 315 357 316.500 M 117 318.500 L 117 319 117.500 319 L 118 319 118 318.500 L 118 318 117.500 318 L 117 318 117 318.500 M 61.333 319.667 L 62 320.333 62.667 319.667 L 63.333 319 62 319 L 60.667 319 61.333 319.667 M 361 319.500 L 361 320 361.500 320 L 362 320 362 319.500 L 362 319 361.500 319 L 361 319 361 319.500 M 365.333 319.667 L 366 320.333 366.667 319.667 L 367.333 319 366 319 L 364.667 319 365.333 319.667 M 367.500 322 L 368.118 323 368.618 323 L 369.118 323 368.500 322 L 367.882 321 367.382 321 L 366.882 321 367.500 322 M 305.371 349.195 L 305.274 375 306.059 375 L 306.843 375 306.896 366.983 L 306.948 358.965 307.783 357.233 L 308.618 355.500 308.339 349.550 L 308.061 343.601 307.513 342.174 L 306.965 340.747 308.233 339.211 L 309.500 337.675 308.363 337.292 L 307.225 336.908 307.659 331.954 L 308.093 327 306.892 327 L 305.690 327 307.451 325.054 L 309.212 323.108 307.340 323.249 L 305.467 323.390 305.371 349.195 M 291.173 330.179 L 290.153 334.500 287.042 343 L 283.931 351.500 282.351 355.971 L 280.770 360.443 278.385 365.657 L 276 370.872 276 371.957 L 276 373.042 273.127 379.271 L 270.253 385.500 267.891 391 L 265.529 396.500 263.611 398.250 L 261.694 400 267.805 400 L 273.915 400 276.030 392.750 L 278.144 385.500 279.044 382.500 L 279.945 379.500 281.553 374.250 L 283.161 369 284.018 369 L 284.876 369 284.771 367.250 L 284.666 365.500 286.898 355.500 L 289.130 345.500 289.950 343 L 290.770 340.500 292.003 333.702 L 293.236 326.903 292.714 326.381 L 292.192 325.859 291.173 330.179 M 294 327.500 L 294 328 294.500 328 L 295 328 295 327.500 L 295 327 294.500 327 L 294 327 294 327.500 M 272 328.500 L 272 329 272.500 329 L 273 329 273 328.500 L 273 328 272.500 328 L 272 328 272 328.500 M 69.638 331.500 L 70.214 333 70.607 333 L 71 333 71 331.500 L 71 330 70.031 330 L 69.063 330 69.638 331.500 M 268.241 331.986 L 267 333.973 267 334.545 L 267 335.118 267.995 334.503 L 268.989 333.889 270.030 331.944 L 271.070 330 270.276 330 L 269.481 330 268.241 331.986 M 21.923 334.059 L 21.847 334.500 21.489 336 L 21.131 337.500 20.135 340.750 L 19.140 344 19.524 344 L 19.909 344 22.455 341.455 L 25 338.909 24.968 338.205 L 24.936 337.500 23.468 335.559 L 22 333.618 21.923 334.059 M 78 334.500 L 78 335 78.500 335 L 79 335 79 334.500 L 79 334 78.500 334 L 78 334 78 334.500 M 263.589 337.750 L 262.865 340 262.040 340 L 261.214 340 260.638 341.500 L 260.063 343 260.916 343 L 261.770 343 263.448 340.439 L 265.126 337.878 264.720 336.689 L 264.313 335.500 263.589 337.750 M 124 339 L 124 340.333 124.667 339.667 L 125.333 339 124.667 338.333 L 124 337.667 124 339 M 125.064 342.508 L 125 343.516 127.880 351.508 L 130.760 359.500 131.531 361.500 L 132.302 363.500 135.764 371 L 139.227 378.500 140.101 380.500 L 140.975 382.500 144.530 388.500 L 148.086 394.500 149.141 397.250 L 150.196 400 155.285 400 L 160.374 400 157.437 396.750 L 154.500 393.500 152.499 391.500 L 150.497 389.500 146.402 383.500 L 142.306 377.500 139.058 371.500 L 135.809 365.500 135.083 364.500 L 134.357 363.500 131.086 355.500 L 127.815 347.500 126.471 344.500 L 125.128 341.500 125.064 342.508 M 258 345.059 L 258 346.118 259 345.500 L 260 344.882 260 344.441 L 260 344 259 344 L 258 344 258 345.059 M 255.459 348.067 L 254.800 349.133 255.150 349.466 L 255.500 349.798 256.789 348.399 L 258.079 347 257.098 347 L 256.118 347 255.459 348.067 M 86 351.500 L 86 352 86.500 352 L 87 352 87 351.500 L 87 351 86.500 351 L 86 351 86 351.500 M 252.405 352.155 L 251.691 353.309 252.845 352.595 L 254 351.882 254 351.441 L 254 351 253.559 351 L 253.118 351 252.405 352.155 M 16.500 355 L 15.882 356 16.941 356 L 18 356 18 355 L 18 354 17.559 354 L 17.118 354 16.500 355 M 87 355.500 L 87 356 87.500 356 L 88 356 88 355.500 L 88 355 87.500 355 L 87 355 87 355.500 M 89 357.500 L 89 358 89.500 358 L 90 358 90 357.500 L 90 357 89.500 357 L 89 357 89 357.500 M 247 359.500 L 247 360 247.500 360 L 248 360 248 359.500 L 248 359 247.500 359 L 247 359 247 359.500 M 36.500 362 L 35.882 363 36.691 362.985 L 37.500 362.969 39 362 L 40.500 361.031 38.809 361.015 L 37.118 361 36.500 362 M 39 363.500 L 39 364 39.500 364 L 40 364 40 363.500 L 40 363 39.500 363 L 39 363 39 363.500 M 243 364 L 243 365.333 243.667 364.667 L 244.333 364 243.667 363.333 L 243 362.667 243 364 M 240 365.500 L 240 366 240.500 366 L 241 366 241 365.500 L 241 365 240.500 365 L 240 365 240 365.500 M 38.500 368 L 36.500 368.859 38 368.859 L 39.500 368.859 41.500 368 L 43.500 367.141 42 367.141 L 40.500 367.141 38.500 368 M 14 368.500 L 14 369 14.500 369 L 15 369 15 368.500 L 15 368 14.500 368 L 14 368 14 368.500 M 35 369 L 35 370.333 35.667 369.667 L 36.333 369 35.667 368.333 L 35 367.667 35 369 M 230.364 370.981 L 226.229 372.821 225.555 373.910 L 224.882 375 222 375 L 219.118 375 218.507 375.988 L 217.897 376.976 222.698 376.333 L 227.500 375.691 227.833 374.846 L 228.167 374 230.083 374 L 232 374 232 373.117 L 232 372.233 234 371.710 L 236 371.187 236 370.094 L 236 369 235.250 369.071 L 234.500 369.141 230.364 370.981 M 31 371.059 L 31 372.118 32 371.500 L 33 370.882 33 370.441 L 33 370 32 370 L 31 370 31 371.059 M 20 371.500 L 20 372 20.500 372 L 21 372 21 371.500 L 21 371 20.500 371 L 20 371 20 371.500 M 27.813 371.683 L 29.125 372.208 29.729 371.604 L 30.333 371 28.417 371.079 L 26.500 371.158 27.813 371.683 M 303.638 382.192 L 302.996 388.330 303.356 388.690 L 303.716 389.049 304.693 382.982 L 305.670 376.914 304.975 376.484 L 304.279 376.055 303.638 382.192 M 117 384.500 L 117 385 117.500 385 L 118 385 118 384.500 L 118 384 117.500 384 L 117 384 117 384.500 M 118 388.500 L 118 389 118.500 389 L 119 389 119 388.500 L 119 388 118.500 388 L 118 388 118 388.500 M 302.079 391.583 L 302.158 393.500 302.683 392.188 L 303.208 390.875 302.604 390.271 L 302 389.667 302.079 391.583 M 301.079 395.583 L 301.158 397.500 301.683 396.188 L 302.208 394.875 301.604 394.271 L 301 393.667 301.079 395.583 M 300 399.500 L 300 400 300.500 400 L 301 400 301 399.500 L 301 399 300.500 399 L 300 399 300 399.500" stroke="none" fill="black" fill-rule="evenodd"/>
</svg>